<mxfile host="app.diagrams.net" agent="Mozilla/5.0 (Macintosh; Intel Mac OS X 10_15_7) AppleWebKit/537.36 (KHTML, like Gecko) Chrome/131.0.0.0 Safari/537.36" version="24.8.9">
  <diagram name="Page-1" id="6zYcXVlmnzbIpOHDHXfL">
    <mxGraphModel dx="3936" dy="2500" grid="1" gridSize="10" guides="1" tooltips="1" connect="1" arrows="1" fold="1" page="1" pageScale="1" pageWidth="1100" pageHeight="1200" math="0" shadow="0">
      <root>
        <mxCell id="0" />
        <mxCell id="1" parent="0" />
        <mxCell id="2" value="Start" style="ellipse;aspect=fixed;strokeWidth=2;whiteSpace=wrap;" parent="1" vertex="1">
          <mxGeometry x="20" y="96" width="50" height="50" as="geometry" />
        </mxCell>
        <mxCell id="3" value="Check if it&#39;s a valid move" style="whiteSpace=wrap;strokeWidth=2;" parent="1" vertex="1">
          <mxGeometry x="260" y="88" width="235" height="66" as="geometry" />
        </mxCell>
        <mxCell id="5" value="Calculate points" style="whiteSpace=wrap;strokeWidth=2;" parent="1" vertex="1">
          <mxGeometry x="520" y="252.94" width="176" height="49" as="geometry" />
        </mxCell>
        <mxCell id="6" value="Update scores" style="whiteSpace=wrap;strokeWidth=2;" parent="1" vertex="1">
          <mxGeometry x="746" y="252.94" width="161" height="49" as="geometry" />
        </mxCell>
        <mxCell id="7" value="Check if game is over" style="whiteSpace=wrap;strokeWidth=2;" parent="1" vertex="1">
          <mxGeometry x="957" y="252.94" width="214" height="49" as="geometry" />
        </mxCell>
        <mxCell id="8" value="Next player&#39;s turn" style="whiteSpace=wrap;strokeWidth=2;" parent="1" vertex="1">
          <mxGeometry x="1243" y="222.94" width="227" height="49" as="geometry" />
        </mxCell>
        <mxCell id="9" value="Game Over" style="whiteSpace=wrap;strokeWidth=2;" parent="1" vertex="1">
          <mxGeometry x="2911" y="273.94" width="140" height="49" as="geometry" />
        </mxCell>
        <mxCell id="10" value="Check if word is valid" style="whiteSpace=wrap;strokeWidth=2;" parent="1" vertex="1">
          <mxGeometry x="1524" y="222.94" width="214" height="49" as="geometry" />
        </mxCell>
        <mxCell id="11" value="Invalid Move" style="whiteSpace=wrap;strokeWidth=2;" parent="1" vertex="1">
          <mxGeometry x="2028" y="38" width="149" height="49" as="geometry" />
        </mxCell>
        <mxCell id="12" value="End Turn" style="whiteSpace=wrap;strokeWidth=2;" parent="1" vertex="1">
          <mxGeometry x="2319" y="8" width="122" height="49" as="geometry" />
        </mxCell>
        <mxCell id="13" value="Calculate points for word" style="whiteSpace=wrap;strokeWidth=2;" parent="1" vertex="1">
          <mxGeometry x="1814" y="222.94" width="242" height="49" as="geometry" />
        </mxCell>
        <mxCell id="14" value="Update scores" style="whiteSpace=wrap;strokeWidth=2;" parent="1" vertex="1">
          <mxGeometry x="2133" y="222.94" width="161" height="49" as="geometry" />
        </mxCell>
        <mxCell id="15" value="Check if game is over" style="whiteSpace=wrap;strokeWidth=2;" parent="1" vertex="1">
          <mxGeometry x="2344" y="222.94" width="214" height="49" as="geometry" />
        </mxCell>
        <mxCell id="16" value="Next player&#39;s turn" style="whiteSpace=wrap;strokeWidth=2;" parent="1" vertex="1">
          <mxGeometry x="2801" y="113" width="227" height="49" as="geometry" />
        </mxCell>
        <mxCell id="17" value="Game Over" style="whiteSpace=wrap;strokeWidth=2;" parent="1" vertex="1">
          <mxGeometry x="2678" y="244.94" width="140" height="49" as="geometry" />
        </mxCell>
        <mxCell id="18" value="End" style="ellipse;aspect=fixed;strokeWidth=2;whiteSpace=wrap;" parent="1" vertex="1">
          <mxGeometry x="3100" y="277.94" width="41" height="41" as="geometry" />
        </mxCell>
        <mxCell id="19" value="Player places a word" style="curved=1;startArrow=none;endArrow=block;exitX=1;exitY=0.5;entryX=0;entryY=0.5;" parent="1" source="2" target="3" edge="1">
          <mxGeometry relative="1" as="geometry">
            <Array as="points" />
          </mxGeometry>
        </mxCell>
        <mxCell id="20" value="Yes" style="curved=1;startArrow=none;endArrow=block;exitX=0.68;exitY=1;entryX=0;entryY=0.5;entryDx=0;entryDy=0;" parent="1" source="3" target="5" edge="1">
          <mxGeometry relative="1" as="geometry">
            <Array as="points">
              <mxPoint x="386" y="245" />
            </Array>
            <mxPoint x="424" y="245.01" as="targetPoint" />
          </mxGeometry>
        </mxCell>
        <mxCell id="22" value="" style="curved=1;startArrow=none;endArrow=block;exitX=1;exitY=0.49;entryX=0;entryY=0.49;" parent="1" source="5" target="6" edge="1">
          <mxGeometry relative="1" as="geometry">
            <Array as="points" />
          </mxGeometry>
        </mxCell>
        <mxCell id="23" value="" style="curved=1;startArrow=none;endArrow=block;exitX=1;exitY=0.49;entryX=0;entryY=0.49;" parent="1" source="6" target="7" edge="1">
          <mxGeometry relative="1" as="geometry">
            <Array as="points" />
          </mxGeometry>
        </mxCell>
        <mxCell id="24" value="No" style="curved=1;startArrow=none;endArrow=block;exitX=1;exitY=0.04;entryX=0;entryY=0.5;" parent="1" source="7" target="8" edge="1">
          <mxGeometry relative="1" as="geometry">
            <Array as="points">
              <mxPoint x="1207" y="247.94" />
            </Array>
          </mxGeometry>
        </mxCell>
        <mxCell id="25" value="Yes" style="curved=1;startArrow=none;endArrow=block;exitX=0.82;exitY=0.99;entryX=0;entryY=0.95;" parent="1" source="7" target="9" edge="1">
          <mxGeometry relative="1" as="geometry">
            <Array as="points">
              <mxPoint x="1207" y="327.94" />
              <mxPoint x="2886" y="327.94" />
            </Array>
          </mxGeometry>
        </mxCell>
        <mxCell id="26" value="2. Player Clicks on Submit" style="curved=1;startArrow=none;endArrow=block;exitX=1;exitY=0.5;entryX=0;entryY=0.5;" parent="1" source="8" target="10" edge="1">
          <mxGeometry relative="1" as="geometry">
            <Array as="points" />
          </mxGeometry>
        </mxCell>
        <mxCell id="27" value="No" style="curved=1;startArrow=none;endArrow=block;exitX=0.61;exitY=0.01;entryX=0;entryY=0.49;" parent="1" source="10" target="11" edge="1">
          <mxGeometry relative="1" as="geometry">
            <Array as="points">
              <mxPoint x="1943" y="62" />
            </Array>
          </mxGeometry>
        </mxCell>
        <mxCell id="28" value="" style="curved=1;startArrow=none;endArrow=block;exitX=1;exitY=0.49;entryX=0;entryY=0.8;" parent="1" source="11" target="12" edge="1">
          <mxGeometry relative="1" as="geometry">
            <Array as="points">
              <mxPoint x="2261" y="62" />
            </Array>
          </mxGeometry>
        </mxCell>
        <mxCell id="29" value="Yes" style="curved=1;startArrow=none;endArrow=block;exitX=1;exitY=0.5;entryX=0;entryY=0.5;" parent="1" source="10" target="13" edge="1">
          <mxGeometry relative="1" as="geometry">
            <Array as="points" />
          </mxGeometry>
        </mxCell>
        <mxCell id="30" value="" style="curved=1;startArrow=none;endArrow=block;exitX=1;exitY=0.5;entryX=0;entryY=0.5;" parent="1" source="13" target="14" edge="1">
          <mxGeometry relative="1" as="geometry">
            <Array as="points" />
          </mxGeometry>
        </mxCell>
        <mxCell id="31" value="" style="curved=1;startArrow=none;endArrow=block;exitX=1;exitY=0.5;entryX=0;entryY=0.5;" parent="1" source="14" target="15" edge="1">
          <mxGeometry relative="1" as="geometry">
            <Array as="points" />
          </mxGeometry>
        </mxCell>
        <mxCell id="32" value="No" style="curved=1;startArrow=none;endArrow=block;exitX=0.83;exitY=0.01;entryX=0;entryY=0.94;" parent="1" source="15" edge="1">
          <mxGeometry relative="1" as="geometry">
            <Array as="points">
              <mxPoint x="2596" y="197.94" />
            </Array>
            <mxPoint x="2634" y="190.99999999999994" as="targetPoint" />
          </mxGeometry>
        </mxCell>
        <mxCell id="33" value="Yes" style="curved=1;startArrow=none;endArrow=block;exitX=1;exitY=0.82;entryX=0;entryY=0.49;" parent="1" source="15" target="17" edge="1">
          <mxGeometry relative="1" as="geometry">
            <Array as="points">
              <mxPoint x="2596" y="268.94" />
            </Array>
          </mxGeometry>
        </mxCell>
        <mxCell id="34" value="" style="curved=1;startArrow=none;endArrow=block;exitX=0;exitY=0.25;entryX=1;entryY=0.5;" parent="1" source="16" target="3" edge="1">
          <mxGeometry relative="1" as="geometry">
            <Array as="points">
              <mxPoint x="2763" y="121" />
            </Array>
          </mxGeometry>
        </mxCell>
        <mxCell id="35" value="" style="curved=1;startArrow=none;endArrow=block;exitX=0.99;exitY=0.49;entryX=0;entryY=0.05;" parent="1" source="17" target="9" edge="1">
          <mxGeometry relative="1" as="geometry">
            <Array as="points">
              <mxPoint x="2886" y="268.94" />
            </Array>
          </mxGeometry>
        </mxCell>
        <mxCell id="36" value="" style="curved=1;startArrow=none;endArrow=block;exitX=0;exitY=0.19;entryX=0.69;entryY=0;" parent="1" source="12" target="3" edge="1">
          <mxGeometry relative="1" as="geometry">
            <Array as="points">
              <mxPoint x="2070" y="3" />
              <mxPoint x="386" y="3" />
            </Array>
          </mxGeometry>
        </mxCell>
        <mxCell id="37" value="" style="curved=1;startArrow=none;endArrow=block;exitX=1;exitY=0.5;entryX=0.01;entryY=0.5;" parent="1" source="9" target="18" edge="1">
          <mxGeometry relative="1" as="geometry">
            <Array as="points" />
          </mxGeometry>
        </mxCell>
      </root>
    </mxGraphModel>
  </diagram>
</mxfile>
